<svg xmlns="http://www.w3.org/2000/svg" width="230.002" height="32" viewBox="0 0 230.002 32">
  <g id="logo" transform="translate(0 5)">
    <rect id="area" width="230" height="32" transform="translate(0 -5)" fill="#fff" opacity="0"/>
    <path id="logo-2" data-name="logo" d="M22893,19911a15.949,15.949,0,1,1,15.949,16A15.97,15.97,0,0,1,22893,19911Zm81.2,15.285v-14.578h15.883v-1.406H22974.2v-14.574h24.754v3.473h-8.871v11.1h7.492v1.416h-7.492v11.092h8.871v3.477Zm-25.283-.01h-13.174v-14.568h19.248v-1.416h-19.248v-14.564h13.213a15.274,15.274,0,0,1,0,30.549Zm168.418-15.238a2.841,2.841,0,0,1,2.932-2.941,2.654,2.654,0,0,1,2.723,2.139l-1.207.143a1.525,1.525,0,0,0-1.488-1.174,1.843,1.843,0,0,0,0,3.668,1.541,1.541,0,0,0,1.488-1.127l1.219.158a2.637,2.637,0,0,1-2.734,2.086A2.843,2.843,0,0,1,23117.336,19911.037Zm-103.752,0a2.839,2.839,0,0,1,2.924-2.941,2.651,2.651,0,0,1,2.73,2.139l-1.219.143a1.51,1.51,0,0,0-1.473-1.174,1.842,1.842,0,0,0,0,3.668,1.543,1.543,0,0,0,1.482-1.127l1.217.158a2.627,2.627,0,0,1-2.738,2.086A2.841,2.841,0,0,1,23013.584,19911.037Zm85.135,2.756v-5.512h1.293v5.512Zm-19.021,0-2.191-3.93v3.93h-1.234v-5.512h1.455l2.186,3.939v-3.939h1.234v5.512Zm-22.293,0v-5.512h1.289v5.512Zm-20.832,0v-5.512h1.3v4.395h2.293v1.117Z" transform="translate(-22893.002 -19900)" fill="#f4f0ec"/>
  </g>
</svg>